<?xml version="1.0" encoding="iso-8859-1"?>
<!-- Generator: Adobe Illustrator 19.0.0, SVG Export Plug-In . SVG Version: 6.00 Build 0)  -->
<svg version="1.1" id="Capa_1" xmlns="http://www.w3.org/2000/svg" xmlns:xlink="http://www.w3.org/1999/xlink" x="0px" y="0px"
	 viewBox="0 0 512 512" style="enable-background:new 0 0 512 512;" xml:space="preserve">
<path style="fill:#455A64;" d="M213.333,0h85.333c5.891,0,10.667,4.776,10.667,10.667v490.667c0,5.891-4.776,10.667-10.667,10.667
	h-85.333c-5.891,0-10.667-4.776-10.667-10.667V10.667C202.667,4.776,207.442,0,213.333,0z"/>
<path style="fill:#FFB300;" d="M498.219,109.781l-64-64c-2.004-1.999-4.721-3.12-7.552-3.115H21.333
	c-5.891-0.011-10.675,4.757-10.686,10.648c-0.005,2.84,1.123,5.565,3.134,7.571l56.469,56.448l-56.469,56.448
	c-4.171,4.16-4.179,10.914-0.019,15.085c2.006,2.011,4.731,3.139,7.571,3.134h405.333c2.831,0.005,5.548-1.115,7.552-3.115l64-64
	c4.171-4.16,4.179-10.914,0.019-15.085C498.231,109.794,498.225,109.788,498.219,109.781z"/>
<path style="fill:#FFD54F;" d="M441.749,288l56.448-56.448c4.171-4.16,4.179-10.914,0.019-15.085
	c-2.001-2.006-4.717-3.133-7.55-3.134H85.333c-2.831-0.005-5.548,1.115-7.552,3.115l-64,64c-4.164,4.165-4.164,10.917,0,15.083
	l64,64c2.001,2.007,4.718,3.135,7.552,3.136h405.333c5.891,0.011,10.675-4.757,10.686-10.648c0.005-2.84-1.123-5.565-3.134-7.571
	L441.749,288z"/>
<g>
</g>
<g>
</g>
<g>
</g>
<g>
</g>
<g>
</g>
<g>
</g>
<g>
</g>
<g>
</g>
<g>
</g>
<g>
</g>
<g>
</g>
<g>
</g>
<g>
</g>
<g>
</g>
<g>
</g>
</svg>
