<?xml version="1.0" encoding="iso-8859-1"?>
<!-- Generator: Adobe Illustrator 19.0.0, SVG Export Plug-In . SVG Version: 6.00 Build 0)  -->
<svg version="1.1" id="Layer_1" xmlns="http://www.w3.org/2000/svg" xmlns:xlink="http://www.w3.org/1999/xlink" x="0px" y="0px"
	 viewBox="0 0 512 512" style="enable-background:new 0 0 512 512;" xml:space="preserve">
<path style="fill:#9EA8A6;" d="M356,512h-86.05V0H356c22.091,0,40,17.909,40,40v432C396,494.091,378.091,512,356,512z"/>
<path style="fill:#C5D3D2;" d="M350.097,512h-40.483H174.487c-11.139,0-20.168-8.954-20.168-20v-66v-84.588
	C130.791,320.365,116,289.897,116,256s14.791-64.365,38.319-85.412V20c0-11.046,9.03-20,20.168-20h93.593h41.533h40.483
	c-22.277,0-40.336,17.909-40.336,40l-0.147,130.588c23.528,21.047,38.319,51.515,38.319,85.412s-14.791,64.365-38.319,85.412V426
	h0.095l0.052,46C309.761,494.091,327.82,512,350.097,512z"/>
<path style="fill:#888E8D;" d="M396,40v432c0,18.638-12.748,34.299-30,38.74V1.26C383.252,5.701,396,21.362,396,40z"/>
<path style="fill:#FFFFFF;" d="M317.681,256c0,46.944-38.376,85-85.714,85s-85.714-38.056-85.714-85s38.376-85,85.714-85
	S317.681,209.056,317.681,256z"/>
<path style="fill:#9EA8A6;" d="M293.92,390c0,4.142-3.358,7.5-7.5,7.5H155.328c-0.343,0-0.678-0.031-1.008-0.076v-14.849
	c0.331-0.045,0.666-0.076,1.008-0.076H286.42C290.563,382.5,293.92,385.858,293.92,390z M286.42,127.5c4.142,0,7.5-3.358,7.5-7.5
	s-3.358-7.5-7.5-7.5H155.328c-0.343,0-0.678,0.031-1.008,0.076v14.849c0.331,0.045,0.666,0.076,1.008,0.076L286.42,127.5
	L286.42,127.5z"/>
<path style="fill:#FC7F59;" d="M291.399,261c0,4.142-3.358,7.5-7.5,7.5h-33.545l-17.059,25.653c-1.403,2.11-3.759,3.347-6.244,3.347
	c-0.374,0-0.75-0.028-1.126-0.085c-2.882-0.437-5.25-2.504-6.071-5.3l-14.589-49.645l-8.895,21.408
	c-1.163,2.799-3.895,4.623-6.926,4.623h-42.263c-0.606-4.081-0.931-8.252-0.931-12.5c0-0.838,0.039-1.667,0.064-2.5h38.124
	l15.114-36.377c1.219-2.936,4.167-4.774,7.331-4.612c3.174,0.172,5.895,2.325,6.791,5.375l16.036,54.568l10.378-15.606
	c1.39-2.091,3.734-3.347,6.245-3.347h37.564C288.041,253.5,291.399,256.858,291.399,261z M239.866,222.5h7.626v7.5
	c0,4.142,3.358,7.5,7.5,7.5s7.5-3.358,7.5-7.5v-7.5h7.626c4.142,0,7.5-3.358,7.5-7.5s-3.358-7.5-7.5-7.5h-7.626V200
	c0-4.142-3.358-7.5-7.5-7.5s-7.5,3.358-7.5,7.5v7.5h-7.626c-4.142,0-7.5,3.358-7.5,7.5S235.724,222.5,239.866,222.5z"/>
<g>
</g>
<g>
</g>
<g>
</g>
<g>
</g>
<g>
</g>
<g>
</g>
<g>
</g>
<g>
</g>
<g>
</g>
<g>
</g>
<g>
</g>
<g>
</g>
<g>
</g>
<g>
</g>
<g>
</g>
</svg>
